<svg width="75" height="75" viewBox="0 0 75 75" fill="none" xmlns="http://www.w3.org/2000/svg">
<path d="M0 37.5C0 21.0626 0 12.8439 4.53979 7.31213C5.37088 6.29945 6.29945 5.37088 7.31213 4.53979C12.8439 0 21.0626 0 37.5 0C53.9374 0 62.1561 0 67.6879 4.53979C68.7005 5.37088 69.6291 6.29945 70.4602 7.31213C75 12.8439 75 21.0626 75 37.5C75 53.9374 75 62.1561 70.4602 67.6879C69.6291 68.7005 68.7005 69.6291 67.6879 70.4602C62.1561 75 53.9374 75 37.5 75C21.0626 75 12.8439 75 7.31213 70.4602C6.29945 69.6291 5.37088 68.7005 4.53979 67.6879C0 62.1561 0 53.9374 0 37.5Z" fill="#313131"/>
<path d="M41.4725 46.7291C40.7401 46.5601 40.019 46.346 39.3035 46.0925C38.4359 45.777 37.9852 44.8192 38.2951 43.9516C38.6106 43.084 39.5627 42.6277 40.4359 42.9432C42.4528 43.6699 44.5655 43.9629 46.7064 43.8164C47.6303 43.7488 48.4247 44.4474 48.4923 45.3657C48.5542 46.2897 47.8613 47.0897 46.943 47.1516C45.0951 47.2812 43.2585 47.1404 41.4725 46.7291Z" fill="white"/>
<path d="M35.2139 57.5009C34.3181 57.2925 33.428 57.0221 32.5547 56.6897C31.6928 56.3573 31.259 55.3939 31.5914 54.5263C31.9238 53.6643 32.8928 53.2305 33.7548 53.5629C37.8055 55.1122 42.2111 54.9939 46.166 53.2305C50.121 51.4671 53.1576 48.2671 54.7069 44.222C57.9125 35.8727 53.721 26.4699 45.3717 23.2643C44.5097 22.9319 44.0759 21.9685 44.4083 21.1009C44.7407 20.2389 45.7041 19.7995 46.5717 20.1375C51.4506 22.0079 55.3097 25.6699 57.4393 30.4417C59.5632 35.2136 59.7041 40.5319 57.8337 45.4108C55.9632 50.2897 52.3013 54.1545 47.5294 56.2784C43.6083 58.0361 39.321 58.4418 35.2139 57.5009Z" fill="white"/>
<path d="M45.9678 37.6249C45.8946 37.608 45.8157 37.5854 45.7425 37.5573C44.8805 37.2249 44.4467 36.2559 44.7791 35.3939L45.6918 33.0108C46.0242 32.1488 46.9876 31.7094 47.8552 32.0474C48.7171 32.3798 49.151 33.3488 48.8186 34.2108L47.9059 36.5939C47.596 37.3826 46.7622 37.8108 45.9678 37.6249ZM30.3678 46.7742C28.6382 46.3742 26.9763 45.7319 25.4044 44.8531C24.5988 44.4024 24.3115 43.3826 24.7678 42.577C25.2185 41.7714 26.2382 41.484 27.0439 41.9404C28.9199 42.9939 30.9481 43.6305 33.089 43.839C34.0185 43.9178 34.6833 44.746 34.5932 45.6643C34.503 46.5826 33.6861 47.2587 32.7678 47.1686C31.9509 47.084 31.1509 46.9545 30.3678 46.7742Z" fill="white"/>
<path d="M31.146 56.6334C27.1009 55.7038 23.4727 53.5179 20.7178 50.3122C17.315 46.346 15.6586 41.2925 16.0586 36.0756C16.4586 30.8643 18.8586 26.1206 22.8305 22.7178C26.7967 19.315 31.8502 17.6586 37.0615 18.0586C37.5629 18.0981 38.0136 18.3572 38.3009 18.7629C38.5883 19.1741 38.6784 19.6868 38.5432 20.1713L36.8868 26.1882L39.9742 29.9911C40.4361 30.5601 40.4756 31.3713 40.0643 31.9798L36.8418 36.7685L37.9798 40.5657C38.0925 40.9319 38.0699 41.3263 37.9235 41.6812L36.0699 46.1939L36.115 46.2953L36.1657 46.07C36.2108 45.8671 36.2953 45.67 36.4192 45.4953L39.3432 41.2418L38.6897 36.915C38.6164 36.4192 38.7685 35.9122 39.1066 35.5404L43.0502 31.2023L41.8502 26.8361C41.7263 26.3742 41.7995 25.8784 42.0643 25.4784L45.0559 20.9094C45.5629 20.1375 46.5995 19.9234 47.3714 20.4248C48.1432 20.9319 48.3629 21.9685 47.8559 22.7403L45.2869 26.6727L46.5319 31.1967C46.684 31.7488 46.5432 32.3404 46.1545 32.7629L42.1319 37.1967L42.7629 41.3939C42.8249 41.8108 42.7291 42.239 42.4869 42.5883L39.3657 47.1235L38.2784 51.8503C38.115 52.5488 37.5291 53.0672 36.8192 53.1404C36.1037 53.208 35.4221 52.8193 35.1291 52.1714L32.7347 46.915C32.5432 46.4925 32.5319 46.0136 32.7122 45.5854L34.6164 40.9545L33.4221 36.9713C33.2756 36.4925 33.3544 35.9742 33.6361 35.5573L36.6052 31.1404L33.7544 27.6305C33.4108 27.2136 33.2981 26.6558 33.439 26.1319L34.746 21.3657C31.1685 21.5403 27.7657 22.8868 25.0051 25.2587C21.7206 28.0812 19.7263 32.0136 19.3939 36.3347C19.0615 40.6559 20.4361 44.8474 23.2587 48.1319C26.0812 51.4164 30.008 53.4108 34.3347 53.7432C35.253 53.8108 35.946 54.6165 35.8784 55.5404C35.8052 56.4643 35.0052 57.1517 34.0812 57.0841C33.0897 57.0052 32.1037 56.8531 31.146 56.6334Z" fill="white"/>
<path d="M29.9626 35.9742C29.1683 35.7939 28.6049 35.0502 28.6725 34.2164L28.8697 31.6699C28.9429 30.7516 29.7429 30.0587 30.6669 30.1319C31.6077 30.1995 32.2781 31.0051 32.2105 31.9291L32.0133 34.4756C31.9401 35.3939 31.1401 36.0868 30.2162 36.0136C30.126 36.0023 30.0415 35.9911 29.9626 35.9742Z" fill="white"/>
</svg>
